<?xml version="1.0" encoding="UTF-8"?>
<svg viewBox="0 0 301.219 301.219" xmlns="http://www.w3.org/2000/svg" width="800" height="800" fill="#000000">
    <g>
        <rect x="0" y="13.736" width="159.365" height="20" rx="10"/>
        <rect x="0" y="56.736" width="140.586" height="20" rx="10"/>
        <rect x="0" y="119.736" width="121.805" height="20" rx="10"/>
        <rect x="0" y="189.736" width="103.025" height="20" rx="10"/>
        <rect x="0" y="252.736" width="84.244" height="20" rx="10"/>
        <path d="M298.29 216.877l-7.071-7.071a10 10 0 0 0-14.143 0l-34.393 34.393V18.736a10 10 0 0 0-10-10h-10a10 10 0 0 0-10 10v225.463l-34.393-34.393a10 10 0 0 0-14.143 0l-7.071 7.071a10 10 0 0 0 0 14.142l63.536 63.536a10 10 0 0 0 14.142 0l63.536-63.536a10 10 0 0 0 0-14.142z"/>
    </g>
</svg>
